<?xml version="1.0" encoding="utf-8"?>
<!-- Generator: Adobe Illustrator 16.0.0, SVG Export Plug-In . SVG Version: 6.00 Build 0)  -->
<!DOCTYPE svg PUBLIC "-//W3C//DTD SVG 1.1//EN" "http://www.w3.org/Graphics/SVG/1.1/DTD/svg11.dtd">
<svg version="1.1" id="Layer_1" xmlns="http://www.w3.org/2000/svg" xmlns:xlink="http://www.w3.org/1999/xlink" x="0px" y="0px"
	 width="45px" height="47px" viewBox="0 0 45 47" enable-background="new 0 0 45 47" xml:space="preserve">
<g>
	<polygon fill="#404041" points="40.176,7.454 40.064,7.356 37.584,5.195 36.215,4 3.676,37.857 1.288,43.947 1.278,43.939 
		0.094,46.962 0.109,46.955 0.094,46.992 9.207,42.685 41.708,8.791 40.355,7.612 	"/>
	<path fill="#404041" d="M44.613,3.861c0,0-0.645-0.822-2.035-2.038c-1.391-1.211-2.14-1.603-2.14-1.603
		c-0.36-0.314-0.908-0.277-1.226,0.081l-2.545,2.926l5.475,4.777l2.551-2.921C45.008,4.721,44.971,4.175,44.613,3.861z"/>
</g>
</svg>
