<?xml version="1.0" encoding="utf-8"?>
<!-- Generator: Adobe Illustrator 16.0.0, SVG Export Plug-In . SVG Version: 6.00 Build 0)  -->
<!DOCTYPE svg PUBLIC "-//W3C//DTD SVG 1.1//EN" "http://www.w3.org/Graphics/SVG/1.1/DTD/svg11.dtd">
<svg version="1.1" id="Layer_1" xmlns="http://www.w3.org/2000/svg" xmlns:xlink="http://www.w3.org/1999/xlink" x="0px" y="0px"
	 width="48px" height="47px" viewBox="0 0 48 47" enable-background="new 0 0 48 47" xml:space="preserve">
<g>
	<polygon fill="#404041" points="-0.048,15.036 -0.048,32.558 8.204,32.558 20.816,47.016 20.816,0.022 7.716,15.036 	"/>
	<g>
		<path fill="#404041" d="M30.693,5.348c-0.482,0-0.957,0.034-1.432,0.075c8.802,0.781,15.723,8.664,15.723,18.288
			c0,9.625-6.921,17.506-15.723,18.288c0.475,0.041,0.949,0.076,1.432,0.076c9.473,0,17.15-8.223,17.15-18.364
			S40.166,5.348,30.693,5.348z"/>
		<path fill="#404041" d="M28.451,10.326c-0.352,0-0.697,0.026-1.04,0.057c6.413,0.568,11.459,6.312,11.459,13.328
			S33.824,36.47,27.411,37.037c0.343,0.031,0.688,0.058,1.04,0.058c6.904,0,12.5-5.991,12.5-13.384
			C40.951,16.32,35.355,10.326,28.451,10.326z"/>
		<path fill="#404041" d="M28,16.134c-0.197,0-0.391,0.014-0.589,0.032c3.633,0.321,6.487,3.573,6.487,7.544
			c0,3.973-2.854,7.225-6.487,7.544c0.198,0.017,0.392,0.031,0.589,0.031c3.91,0,7.077-3.391,7.077-7.576
			C35.077,19.527,31.91,16.134,28,16.134z"/>
	</g>
</g>
</svg>
