<?xml version="1.0" encoding="utf-8"?>
<!-- Generator: Adobe Illustrator 16.0.0, SVG Export Plug-In . SVG Version: 6.00 Build 0)  -->
<!DOCTYPE svg PUBLIC "-//W3C//DTD SVG 1.1//EN" "http://www.w3.org/Graphics/SVG/1.1/DTD/svg11.dtd">
<svg version="1.1" id="Layer_1" xmlns="http://www.w3.org/2000/svg" xmlns:xlink="http://www.w3.org/1999/xlink" x="0px" y="0px"
	 width="48px" height="47px" viewBox="0 0 48 47" enable-background="new 0 0 48 47" xml:space="preserve">
<g>
	<polygon fill="#404041" points="0,15.039 0,32.518 9.357,32.518 23.667,46.941 23.667,0.058 8.804,15.039 	"/>
	<g>
		<path fill="#404041" d="M32.008,7.981c-0.434,0-0.857,0.03-1.281,0.067c7.9,0.657,14.111,7.318,14.111,15.45
			c0,8.135-6.211,14.796-14.111,15.455c0.424,0.035,0.848,0.064,1.281,0.064c8.502,0,15.393-6.948,15.393-15.52
			C47.4,14.929,40.51,7.981,32.008,7.981z"/>
		<path fill="#404041" d="M31.449,14.715c-0.242,0-0.484,0.016-0.723,0.036c4.473,0.371,7.988,4.143,7.988,8.747
			c0,4.606-3.516,8.377-7.988,8.75c0.238,0.021,0.48,0.036,0.723,0.036c4.814,0,8.717-3.933,8.717-8.786
			C40.166,18.647,36.264,14.715,31.449,14.715z"/>
	</g>
</g>
</svg>
