<?xml version="1.0" encoding="utf-8"?>
<!-- Generator: Adobe Illustrator 16.0.0, SVG Export Plug-In . SVG Version: 6.00 Build 0)  -->
<!DOCTYPE svg PUBLIC "-//W3C//DTD SVG 1.1//EN" "http://www.w3.org/Graphics/SVG/1.1/DTD/svg11.dtd">
<svg version="1.1" id="Layer_1" xmlns="http://www.w3.org/2000/svg" xmlns:xlink="http://www.w3.org/1999/xlink" x="0px" y="0px"
	 width="56px" height="50px" viewBox="0 0 56 50" enable-background="new 0 0 56 50" xml:space="preserve">
<path fill="#FFFFFF" d="M56,9.928l-4.691,12.935l-13.816-4.392l6.51-3.005c-5.384-8.089-16.581-11.205-25.9-6.903
	C8.178,13.144,4.085,24.43,8.979,33.721c4.894,9.29,16.949,13.122,26.873,8.541c5.414-2.499,9.086-6.994,10.518-12.07l5.991,1.476
	c-1.873,6.646-6.681,12.529-13.767,15.8c-12.991,5.996-28.771,0.981-35.176-11.18S2.37,9.354,15.36,3.357
	c12.386-5.718,27.302-1.419,34.216,9.534L56,9.928z"/>
</svg>
