<?xml version="1.0" encoding="utf-8"?>
<!-- Generator: Adobe Illustrator 16.0.0, SVG Export Plug-In . SVG Version: 6.00 Build 0)  -->
<!DOCTYPE svg PUBLIC "-//W3C//DTD SVG 1.1//EN" "http://www.w3.org/Graphics/SVG/1.1/DTD/svg11.dtd">
<svg version="1.1" id="Layer_1" xmlns="http://www.w3.org/2000/svg" xmlns:xlink="http://www.w3.org/1999/xlink" x="0px" y="0px"
	 width="58px" height="58px" viewBox="0 0 58 58" enable-background="new 0 0 58 58" xml:space="preserve">
<path fill="#FFFFFF" d="M41.704,7.042c-9.388-9.389-24.665-9.389-34.053,0c-9.389,9.389-9.389,24.666,0,34.054
	c7.982,7.98,20.217,9.172,29.474,3.584l12.713,12.711L58,49.229L45.287,36.516C50.877,27.258,49.687,15.024,41.704,7.042z
	 M36.995,36.385c-6.792,6.793-17.843,6.793-24.635,0c-6.792-6.791-6.792-17.842,0-24.633c6.792-6.792,17.843-6.792,24.635,0
	C43.787,18.542,43.787,29.594,36.995,36.385z"/>
</svg>
