<?xml version="1.0" encoding="utf-8"?>
<!-- Generator: Adobe Illustrator 16.0.0, SVG Export Plug-In . SVG Version: 6.00 Build 0)  -->
<!DOCTYPE svg PUBLIC "-//W3C//DTD SVG 1.1//EN" "http://www.w3.org/Graphics/SVG/1.1/DTD/svg11.dtd">
<svg version="1.1" id="Layer_1" xmlns="http://www.w3.org/2000/svg" xmlns:xlink="http://www.w3.org/1999/xlink" x="0px" y="0px"
	 width="44px" height="35px" viewBox="0 0 44 35" enable-background="new 0 0 44 35" xml:space="preserve">
<g>
	<path fill="#FFFFFF" d="M43.946,3.458c0,1.909-1.548,3.457-3.457,3.457H3.457C1.548,6.915,0,5.367,0,3.458l0,0
		C0,1.548,1.548,0,3.457,0h37.032C42.398,0,43.946,1.548,43.946,3.458L43.946,3.458z"/>
	<path fill="#FFFFFF" d="M43.946,17.988c0,1.909-1.548,3.457-3.457,3.457H3.457C1.548,21.445,0,19.897,0,17.988l0,0
		c0-1.91,1.548-3.458,3.457-3.458h37.032C42.398,14.53,43.946,16.078,43.946,17.988L43.946,17.988z"/>
	<path fill="#FFFFFF" d="M43.946,31.371c0,1.909-1.548,3.457-3.457,3.457H3.457C1.548,34.828,0,33.28,0,31.371l0,0
		c0-1.91,1.548-3.458,3.457-3.458h37.032C42.398,27.913,43.946,29.461,43.946,31.371L43.946,31.371z"/>
</g>
</svg>
