<?xml version="1.0" encoding="utf-8"?>
<!-- Generator: Adobe Illustrator 16.0.0, SVG Export Plug-In . SVG Version: 6.00 Build 0)  -->
<!DOCTYPE svg PUBLIC "-//W3C//DTD SVG 1.1//EN" "http://www.w3.org/Graphics/SVG/1.1/DTD/svg11.dtd">
<svg version="1.1" id="Layer_1" xmlns="http://www.w3.org/2000/svg" xmlns:xlink="http://www.w3.org/1999/xlink" x="0px" y="0px"
	 width="68px" height="71px" viewBox="0 0 68 71" enable-background="new 0 0 68 71" xml:space="preserve">
<g>
	<path fill="#231F20" d="M67.062,67.21c0,1.909-1.547,3.457-3.457,3.457H3.457C1.548,70.667,0,69.119,0,67.21l0,0
		c0-1.91,1.548-3.458,3.457-3.458h60.148C65.516,63.752,67.062,65.3,67.062,67.21L67.062,67.21z"/>
	<path fill="#231F20" d="M33.531,0C19.355,0,7.864,11.491,7.864,25.667v36.312h19.373c-0.069-0.378-0.11-0.766-0.11-1.163V48.093
		c-1.323-1.504-2.134-3.472-2.134-5.635v-4.695c0-4.715,3.822-8.538,8.538-8.538c4.717,0,8.539,3.823,8.539,8.538v4.695
		c0,2.163-0.811,4.132-2.135,5.636v12.722c0,0.397-0.041,0.785-0.111,1.163h19.375V25.667C59.199,11.491,47.707,0,33.531,0z"/>
</g>
</svg>
