<?xml version="1.0" encoding="utf-8"?>
<!-- Generator: Adobe Illustrator 16.0.0, SVG Export Plug-In . SVG Version: 6.00 Build 0)  -->
<!DOCTYPE svg PUBLIC "-//W3C//DTD SVG 1.1//EN" "http://www.w3.org/Graphics/SVG/1.1/DTD/svg11.dtd">
<svg version="1.1" id="Layer_1" xmlns="http://www.w3.org/2000/svg" xmlns:xlink="http://www.w3.org/1999/xlink" x="0px" y="0px"
	 width="85px" height="95px" viewBox="0 0 85 95" enable-background="new 0 0 85 95" xml:space="preserve">
<path fill="#ACACAC" d="M78.443,35.85h-1.295v-3.073c0-17.885-15.543-32.436-34.648-32.436c-19.105,0-34.648,14.55-34.648,32.436
	v3.073H6.557c-3.577,0-6.477,2.714-6.477,6.062v46.683c0,3.349,2.899,6.062,6.477,6.062h71.887c3.576,0,6.477-2.714,6.477-6.062
	V41.913C84.92,38.564,82.02,35.85,78.443,35.85z M42.5,79.681c-5.96,0-10.792-4.523-10.792-10.103c0-4.419,3.031-8.172,7.251-9.545
	v-5.99c0-1.775,1.538-3.215,3.435-3.215c1.897,0,3.435,1.439,3.435,3.215v5.924c4.332,1.312,7.465,5.119,7.465,9.611
	C53.293,75.157,48.461,79.681,42.5,79.681z M67.434,35.85H17.566v-3.073c0-12.871,11.185-23.342,24.934-23.342
	c13.748,0,24.934,10.471,24.934,23.342V35.85z"/>
</svg>
